<svg version="1.1" xmlns="http://www.w3.org/2000/svg" viewBox="-281.59999961853026 -960.51201171875 3186.316748046875 1277.952001953125"><desc>Created with Snap</desc><defs></defs><g><rect x="-281.59999961853026" y="-960.51201171875" width="3186.316748046875" height="1277.952001953125" style="" fill="#3bcea2"></rect><g><g transform="matrix(1.024,0,0,-1.024,0,0)"><g transform="matrix(1,0,0,1,0,0)"><path d="M49 52L73 52L73 585L49 585Q25 585 25 611Q25 638 49 638L237 638Q332 638 394 583Q457 529 457 441Q457 354 393 295Q330 236 223 236L130 236L130 52L160 52Q184 52 184 26Q184 0 160 0L49 0Q25 0 25 26Q25 52 49 52ZM130 580L130 283L239 283Q311 283 356 329Q401 375 401 442Q401 509 354 551Q307 593 242 593L209 593Q130 593 130 580Z" style="" fill="#292929"></path></g><g transform="matrix(1,0,0,1,472,0)"><path d="M15 241Q15 349 76 418Q138 488 242 488Q347 488 408 419Q470 350 470 242Q470 135 409 64Q348 -6 241 -6Q135 -6 75 64Q15 134 15 241ZM120 99Q169 41 242 41Q315 41 364 98Q414 156 414 241Q414 326 364 383Q314 441 242 441Q170 441 120 384Q71 327 71 242Q71 157 120 99Z" style="" fill="#292929"></path></g><g transform="matrix(1,0,0,1,957,0)"><g transform="matrix(0.8849,0,0,0.8849,-57.0125,575.684)"><g transform="matrix(1,0,0,-1,0,0)">
<g>
	<path d="M556.62,155.17c-52.47-36.17-122-56.08-195.75-56.08S217.6,119,165.13,155.17c-54,37.22-83.75,87.21-83.75,140.76V440
		c0,53.55,29.74,103.54,83.75,140.77c31.42,21.66,69,37.49,109.87,46.7v10.88c0,10.49,8.51,19,19,19h145.76c10.49,0,19-8.51,19-19
		v-13.8c36.24-9.48,69.54-24.26,97.86-43.78c54-37.23,83.74-87.22,83.74-140.77V295.93C640.36,242.38,610.62,192.39,556.62,155.17z
		 M439.8,503.24H355v91.64h84.8V629h-0.04v9.38H294V487.09v-27.37v-0.06h61v0.06h84.8V503.24z M489.24,563.03
		c-6.49,0-11.76-13.94-11.76-31.13s5.27-31.13,11.76-31.13S501,514.71,501,531.9S495.73,563.03,489.24,563.03z M562.47,521.93h-0.04
		c-6.49,0-11.75-13.94-11.75-31.13s5.26-31.14,11.75-31.14s11.76,13.94,11.76,31.14S569,521.93,562.47,521.93z M597.94,354.36
		l-0.79,1.42c-0.32,0.56-0.64,1.13-1,1.69c-0.65,1.12-1.32,2.24-2,3.35c-4.28,6.87-9.09,13.4-14.37,19.53
		c-28.31,33-71.75,58.1-122.28,72.3c-2.9-7.24-9.94-11.97-17.74-11.93h-0.04h-83.25c-0.5,0-1-0.06-1.51-0.06H294
		c-8.99,0-16.75,6.29-18.6,15.09c-65.52-15.87-119.68-49.75-147.72-94.88c-0.73-1.18-1.43-2.36-2.13-3.56
		c-0.2-0.35-0.4-0.71-0.61-1.06c-0.51-0.9-1-1.8-1.49-2.7c-0.19-0.35-0.38-0.69-0.56-1c-0.63-1.17-1.23-2.35-1.81-3.53l0.24-0.51
		l0.71-1.38c0.29-0.56,0.58-1.12,0.88-1.68c0.3-0.56,0.5-0.94,0.75-1.4l0.92-1.65c0.26-0.47,0.53-0.93,0.8-1.4l1-1.63l0.84-1.39
		c0.34-0.54,0.67-1.08,1-1.61c0.33-0.53,0.59-0.93,0.88-1.39c0.29-0.46,0.7-1.07,1.06-1.6c0.36-0.53,0.61-0.91,0.92-1.37l1.1-1.59
		c0.32-0.45,0.63-0.9,1-1.35l1.15-1.59l1-1.33l1.21-1.59l1-1.3c0.42-0.54,0.86-1.07,1.29-1.61s0.67-0.84,1-1.25
		c0.46-0.56,0.93-1.1,1.39-1.65c0.33-0.4,0.66-0.79,1-1.18c0.51-0.6,1-1.2,1.57-1.79c0.3-0.34,0.59-0.68,0.89-1
		c0.71-0.79,1.43-1.57,2.15-2.35c0.14-0.14,0.26-0.28,0.39-0.43c0.86-0.91,1.74-1.82,2.62-2.73l0.89-0.89l1.81-1.81
		c0.36-0.36,0.74-0.72,1.11-1.07l1.66-1.6l1.22-1.13c0.54-0.51,1.08-1,1.64-1.51s0.85-0.77,1.28-1.15l1.64-1.45
		c0.44-0.39,0.9-0.78,1.35-1.16L164,296l1.39-1.16l1.68-1.37l1.43-1.15l1.71-1.34l1.47-1.13l1.75-1.33l1.5-1.11l1.78-1.3l1.53-1.09
		l1.83-1.28l1.55-1.07l1.87-1.27l1.58-1l1.92-1.25l1.58-1l2-1.25l1.57-1l2.08-1.25l1.56-0.92l2.22-1.28l1.47-0.84
		c0.83-0.47,1.67-0.93,2.5-1.38l1.27-0.7c1.26-0.68,2.53-1.36,3.81-2c44.49-23.12,97.67-35.34,153.78-35.34
		c7.02,0,13.99,0.19,20.9,0.57c4.1,0.22,8.18,0.51,12.25,0.87c23.79,2.04,47.3,6.54,70.16,13.44c3.71,1.12,7.38,2.32,11,3.57
		c3.05,1.05,6.07,2.15,9.08,3.3c10.38,3.94,20.52,8.48,30.38,13.59l0.84,0.44l3,1.58l1.52,0.83l2.24,1.24l1.62,0.93
		c0.7,0.4,1.4,0.79,2.08,1.2c0.68,0.41,1.1,0.65,1.65,1l2,1.19c0.55,0.33,1.1,0.68,1.65,1s1.29,0.79,1.93,1.2l1.63,1l1.88,1.22
		l1.61,1.07l1.83,1.23l1.59,1.1l1.79,1.25l1.57,1.12l1.74,1.28c0.52,0.37,1,0.75,1.54,1.13l1.71,1.3l1.5,1.15l1.68,1.33l1.46,1.16
		l1.65,1.36l1.41,1.17l1.64,1.39l1.36,1.18l1.62,1.43l1.3,1.17c0.55,0.49,1.09,1,1.62,1.49l1.23,1.14l1.66,1.59l1.12,1.09
		c0.6,0.59,1.2,1.19,1.79,1.79l0.91,0.91c0.88,0.91,1.75,1.82,2.61,2.73l0.43,0.47c0.71,0.77,1.42,1.53,2.11,2.3l0.9,1l1.56,1.78
		c0.34,0.39,0.66,0.78,1,1.17c0.47,0.55,0.94,1.11,1.4,1.67l1,1.24c0.43,0.54,0.87,1.07,1.29,1.62s0.67,0.86,1,1.29l1.23,1.6l1,1.32
		l1.17,1.59l1,1.35c0.37,0.53,0.74,1.06,1.1,1.6l0.92,1.36l1.06,1.61l0.88,1.38l1,1.62l0.84,1.39l1,1.63l0.8,1.39
		c0.31,0.55,0.61,1.1,0.91,1.65l0.76,1.4c0.3,0.56,0.59,1.12,0.88,1.68l0.71,1.39l0.24,0.5
		C599.87,350.75,598.92,352.56,597.94,354.36z" style="" fill="#292929"></path>
</g>
<desc>Created with Snap</desc><defs></defs></g></g></g><g transform="matrix(1,0,0,1,1481.6371,0)"><path d="M346 137Q364 137 372 128Q380 120 380 110Q380 75 335 32Q291 -10 220 -10Q130 -10 75 61Q20 133 20 241Q20 349 73 419Q126 490 208 490Q253 490 287 468Q321 447 321 412Q321 394 311 382Q302 370 284 370Q266 370 252 390Q238 411 237 438Q221 445 209 445Q154 445 115 388Q76 332 76 242Q76 153 117 94Q159 36 220 36Q281 36 317 113Q328 137 346 137Z" style="" fill="#292929"></path></g><g transform="matrix(1,0,0,1,1861.6371,0)"><path d="M86 52L86 586L47 586Q25 586 25 612Q25 638 47 638L120 638Q133 638 137 633Q142 629 142 616L142 392Q160 428 200 457Q240 486 297 486Q355 486 386 441Q417 397 417 338L417 52L446 52Q457 52 463 44Q469 36 469 26Q469 16 463 8Q457 0 446 0L336 0Q310 0 310 26Q310 52 336 52L361 52L361 341Q361 377 344 408Q327 439 286 439Q231 439 186 382Q142 325 142 262L142 52L171 52Q182 52 189 44Q196 36 196 26Q196 16 189 8Q182 0 171 0L55 0Q31 0 31 26Q31 52 55 52L86 52Z" style="" fill="#292929"></path></g><g transform="matrix(1,0,0,1,2350.6371,0)"><path d="M80 53L80 429L54 429Q42 429 35 436Q28 444 28 454Q28 480 54 480L104 480Q135 480 136 453L136 52L161 52Q173 52 179 44Q186 36 186 26Q186 0 161 0L55 0Q45 0 37 7Q30 15 30 25Q30 35 37 43Q45 52 55 52L80 53ZM95 635Q115 635 128 622Q142 609 142 590Q142 572 128 559Q115 546 95 546Q76 546 62 559Q49 572 49 590Q49 609 62 622Q75 635 95 635Z" style="" fill="#292929"></path></g></g></g></g></svg>